# xmcd
#
# Track frame offsets: 
#        187
#        15120
#        32010
#        56220
#        74182
#        90535
#        109805
#        127830
#        142247
#        155817
#        177870
#
# Disc length: 2608 seconds
#
# Revision: 8
# Processed by: cddbd v1.5.2PL0 Copyright (c) Steve Scherf et al.
# Submitted via: ExactAudioCopy v0.99pb4
#
DISCID=990a2e0b
DTITLE=Alabama - Greatest Hits II
DYEAR=1991
DGENRE=Country
TTITLE0=Born Country
TTITLE1=Then Again
TTITLE2=Dixieland Delight
TTITLE3=Lady Down On Love
TTITLE4=The Closer You Get
TTITLE5=Roll On (Eighteen Wheeler)
TTITLE6=Fallin' Again
TTITLE7=Song Of The South
TTITLE8=High Cotton
TTITLE9=Take Me Down
TTITLE10=Hats Off
EXTD=
EXTT0=
EXTT1=
EXTT2=
EXTT3=
EXTT4=
EXTT5=
EXTT6=
EXTT7=
EXTT8=
EXTT9=
EXTT10=
PLAYORDER=
